<?xml version="1.0" encoding="utf-8"?>
<!-- Generator: Adobe Illustrator 24.3.0, SVG Export Plug-In . SVG Version: 6.00 Build 0)  -->
<svg version="1.1" id="Слой_1" xmlns="http://www.w3.org/2000/svg" xmlns:xlink="http://www.w3.org/1999/xlink" x="0px" y="0px"
	 viewBox="0 0 260.43 295.66" style="enable-background:new 0 0 260.43 295.66;" xml:space="preserve">
<style type="text/css">
	.st0{fill:#2575B7;}
	.st1{clip-path:url(#SVGID_2_);}
	.st2{clip-path:url(#SVGID_4_);fill:#2575B7;}
</style>
<g>
	<path class="st0" d="M25.43,197.47c4.29-21.33,16.13-38.1,31.88-52.4c9.58-8.7,20.26-15.45,33.65-16.5
		c0.64-0.05,1.29-0.01,2.81-0.01c-1.34,2.89-2.56,5.28-3.58,7.75c-2.89,7.02-5.6,14.12-8.59,21.1c-0.61,1.43-1.94,3.25-3.25,3.57
		c-19.36,4.75-33.27,17.08-45.26,32.13c-2.67,3.35-5.11,6.88-7.66,10.33C25.43,201.46,25.43,199.47,25.43,197.47z"/>
	<path class="st0" d="M173.28,53.86c15.66,13.39,30.97,26.61,46.46,39.6c2.85,2.39,1.35,4.34,0.43,6.5
		c-17.49,41.02-46.37,71.71-85.01,93.49c-3.31,1.87-6.94,3.26-10.05,5.41c-4.34,3-7.72,2.31-11-1.51c-1.28-1.49-2.94-2.65-4.72-4.22
		c6.21-6.78,12.36-13.41,18.4-20.13c2.32-2.59,4.58-5.27,6.54-8.13c3.75-5.46,3.13-10.94-1.39-14.68
		c-4.32-3.57-9.95-3.54-14.27,1.24c-7.1,7.86-13.6,16.27-20.34,24.46c-1.16,1.4-2.25,2.86-3.69,4.7c-2.77-2.34-5.65-4.47-8.09-7.01
		c-0.88-0.92-1.32-3.03-0.94-4.29C100.42,120.06,128.36,80.79,173.28,53.86z M196.69,105.28c0.05-13.88-10.9-25.14-24.6-25.27
		c-14.13-0.14-25.4,10.8-25.59,24.84c-0.2,13.93,10.96,25.43,24.91,25.66C185.16,130.74,196.63,119.29,196.69,105.28z"/>
	<path class="st0" d="M236.18,29.49c-1.66,20.32-4.68,39.64-11.56,59.23c-15.19-12.97-29.86-25.49-45.1-38.5
		C197.5,40.36,216.3,34.26,236.18,29.49z"/>
	<path class="st0" d="M40.78,259.53c-0.46-27.7,11.31-67.99,37.31-84.42c1.2,0.95,2.48,1.95,4.23,3.33
		c-9.84,8.12-16.36,18.33-20.94,29.79c-4.56,11.41-7.44,23.22-8.25,36.17c24.41-7.02,46.07-17.04,60.25-39.16
		c1.34,1.09,2.58,2.09,4.3,3.49C101.21,239.59,72.55,251.28,40.78,259.53z"/>
	<path class="st0" d="M97.77,264.01c3.09-2.74,5.44-4.53,7.45-6.64c12.21-12.77,22.42-26.98,24.83-44.83
		c0.99-7.29,4.1-10.51,9.99-13.54c7.13-3.67,13.66-8.5,20.5-12.86C167.7,214.56,124.94,263.18,97.77,264.01z"/>
	<path class="st0" d="M65.43,228.43c17.23-22.43,34.45-44.87,51.74-67.26c1.81-2.34,3.79-4.81,6.24-6.3
		c1.54-0.93,4.64-0.87,6.06,0.14c1.1,0.77,1.04,3.76,0.79,5.66c-0.18,1.31-1.44,2.58-2.44,3.66c-20.3,21.78-40.64,43.52-60.97,65.27
		C66.37,229.21,65.9,228.82,65.43,228.43z"/>
	<path class="st0" d="M152.71,104.88c0.09-10.47,8.69-18.97,19.08-18.86c10.36,0.11,18.92,8.81,18.88,19.19
		c-0.05,10.76-8.62,19.1-19.47,18.93C160.58,123.97,152.62,115.68,152.71,104.88z"/>
</g>
<g>
	<g>
		<defs>
			<rect id="SVGID_1_" x="-328.19" y="-97.15" width="148.09" height="253.28"/>
		</defs>
		<clipPath id="SVGID_2_">
			<use xlink:href="#SVGID_1_"  style="overflow:visible;"/>
		</clipPath>
		<g class="st1">
			<defs>
				<rect id="SVGID_3_" x="-328.19" y="-97.15" width="148.09" height="253.28"/>
			</defs>
			<clipPath id="SVGID_4_">
				<use xlink:href="#SVGID_3_"  style="overflow:visible;"/>
			</clipPath>
			<path class="st2" d="M-191.19,109.18v-13.6c-13.89,0-27.35,0-40.81,0c-6.54,0-6.55-0.01-6.56-6.55
				c-0.02-30.4-0.02-60.81-0.05-91.21c-0.01-10.76-5.23-19.32-11.77-27.27c-2.44-2.96-5.11-2.8-7.53,0.04
				c-6.5,7.62-11.24,16.15-11.66,26.36c-0.37,8.96-0.14,17.94-0.17,26.91c-0.05,22.59-0.14,45.19-0.1,67.78
				c0.01,3.03-1.06,4.08-4.07,4.01c-6.15-0.15-12.3-0.02-18.46-0.01c-8.1,0.01-16.19,0-24.43,0v13.82h45.93
				c-0.63,4.85-1.2,9.2-1.83,13.99h37.58c-0.81-4.82-1.56-9.23-2.4-14.24H-191.19z"/>
			<path class="st2" d="M-227.76,24.88c-4.31-3.18-5.83-6.44-5.54-10.87c0.33-5.13-0.14-10.31,0.15-15.44
				c0.72-12.93-4.66-23.59-12.36-33.28c-5.66-7.12-11.67-7.18-17.41-0.1c-7.67,9.47-13.06,19.98-12.6,32.71
				c0.2,5.64-0.17,11.31,0.16,16.94c0.26,4.32-1.74,7.05-5.56,10.22c0-8.47,0-16.05,0-23.63c0-13.79-0.41-27.6,0.12-41.37
				c0.7-18.25,9.05-33.4,21.11-46.6c3.85-4.22,7.18-4.17,11.08,0.21c11.86,13.31,20.36,28.41,20.75,46.72
				c0.42,19.6,0.11,39.21,0.12,58.82V24.88z"/>
			<path class="st2" d="M-308.01,56.21c0-27.82-0.06-54.24,0.04-80.66c0.03-7.61,5.65-19.65,10.93-23.72
				c5.75,6.56,9.36,14.27,9.57,22.81c0.5,20.1,0.25,40.21,0.2,60.32c0,1.37-0.42,3.19-1.34,4.04
				C-294.67,44.6-300.93,49.98-308.01,56.21"/>
			<path class="st2" d="M-211.22-48.93c6.4,7.2,10.08,14.92,10.25,23.15c0.56,26.87,0.21,53.75,0.21,81.85
				c-7.07-6.3-13.49-11.89-19.7-17.72c-0.85-0.8-0.81-2.78-0.82-4.21c-0.06-19.42-0.2-38.85,0-58.27
				C-221.18-33.22-217.22-40.96-211.22-48.93"/>
			<path class="st2" d="M-317.21,87.9c0-4.94,0-4.94,0.13-13.19c0.02-1.55,1.48-3.25,2.73-4.38c6.14-5.59,12.52-10.92,18.66-16.51
				c6.72-6.11,13.28-12.39,20.5-19.15c0,3.4,0,6.6,0,9.81c-0.01,12.95-0.01,25.91-0.03,38.86c0,2.11,0.47,4.57-2.94,4.57
				C-290.93,87.89-303.69,87.9-317.21,87.9"/>
			<path class="st2" d="M-190.96,87.9c0-4.94,0-4.94-0.13-13.19c-0.02-1.55-1.48-3.25-2.73-4.38c-6.14-5.59-12.51-10.92-18.66-16.51
				c-6.72-6.11-13.27-12.39-20.5-19.15c0,3.4,0,6.6,0,9.81c0.01,12.95,0.01,25.91,0.03,38.86c0,2.11-0.47,4.57,2.94,4.57
				C-217.24,87.89-204.48,87.9-190.96,87.9"/>
			<path class="st2" d="M-211.11,115.01h-8.69c-2.62,8.88-5.07,17.16-7.64,25.88c7.14-1.59,6,3.72,6.48,7.76h9.85V115.01z"/>
			<path class="st2" d="M-211.11,115.01h8.69c2.62,8.88,5.07,17.16,7.64,25.88c-7.14-1.59-6,3.72-6.48,7.76h-9.85V115.01z"/>
			<path class="st2" d="M-297.79,115.01h-8.69c-2.62,8.88-5.07,17.16-7.64,25.88c7.14-1.59,6,3.72,6.48,7.76h9.85V115.01z"/>
			<path class="st2" d="M-297.79,115.01h8.69c2.62,8.88,5.07,17.16,7.64,25.88c-7.14-1.59-6,3.72-6.48,7.76h-9.85V115.01z"/>
		</g>
	</g>
</g>
</svg>
